<svg xmlns="http://www.w3.org/2000/svg" xmlns:xlink="http://www.w3.org/1999/xlink" width="114" height="82" viewBox="0 0 114 82"><defs><style>.a{fill:#a6ce39;}.b{clip-path:url(#a);}.c{fill:url(#b);}</style><clipPath id="a"><rect class="a" width="114" height="82" transform="translate(221 4348)"/></clipPath><linearGradient id="b" x1="0.5" x2="0.5" y2="1" gradientUnits="objectBoundingBox"><stop offset="0" stop-color="#abbc37"/><stop offset="1" stop-color="#2ba684"/></linearGradient></defs><g class="b" transform="translate(-221 -4348)"><g transform="translate(235 4349)"><path class="c" d="M79.438,30.236A15.231,15.231,0,0,0,64.775,10.909a15.431,15.431,0,0,0-1.79.1,17.594,17.594,0,0,0-32.631,0,15.506,15.506,0,0,0-1.791-.1A15.231,15.231,0,0,0,13.9,30.236a12.613,12.613,0,0,0,6.7,23.293H23V58.6a3.3,3.3,0,0,0,3.3,3.3h.616a20.342,20.342,0,0,0,1.727,4.164l-.432.432a3.3,3.3,0,0,0,0,4.674l3.456,3.461a3.311,3.311,0,0,0,4.666,0l.441-.439a20.34,20.34,0,0,0,4.16,1.724v.616a3.309,3.309,0,0,0,3.3,3.305h4.883a3.309,3.309,0,0,0,3.3-3.305v-.617a20.442,20.442,0,0,0,4.158-1.723l.437.437a3.307,3.307,0,0,0,4.671,0l3.46-3.46a3.312,3.312,0,0,0,0-4.668l-.437-.437A20.543,20.543,0,0,0,66.429,61.9h.614a3.307,3.307,0,0,0,3.3-3.3V53.529h2.387a12.613,12.613,0,0,0,6.7-23.293ZM67.228,58.6a.189.189,0,0,1-.186.182H65.221A1.559,1.559,0,0,0,63.7,60a17.472,17.472,0,0,1-2.273,5.483,1.559,1.559,0,0,0,.216,1.934l1.29,1.291a.194.194,0,0,1,0,.261l-3.456,3.456a.194.194,0,0,1-.261,0l-1.29-1.291a1.56,1.56,0,0,0-1.935-.216,17.359,17.359,0,0,1-5.475,2.268A1.559,1.559,0,0,0,49.3,74.706v1.825a.194.194,0,0,1-.186.186H44.229a.191.191,0,0,1-.186-.186V74.706a1.559,1.559,0,0,0-1.219-1.522,17.278,17.278,0,0,1-5.473-2.267,1.559,1.559,0,0,0-1.934.213l-1.3,1.292a.191.191,0,0,1-.26,0l-3.452-3.457a.184.184,0,0,1-.054-.133.174.174,0,0,1,.054-.129l1.29-1.291a1.559,1.559,0,0,0,.215-1.937A17.263,17.263,0,0,1,29.643,60a1.559,1.559,0,0,0-1.522-1.219H26.3a.184.184,0,0,1-.182-.182V53.529h7.264a13.553,13.553,0,1,0,26.585,0h7.266V58.6Zm5.506-8.189H53.669a1.559,1.559,0,1,0,0,3.119h3.1a10.431,10.431,0,1,1-20.191,0h3.095a1.559,1.559,0,1,0,0-3.119H20.608a9.493,9.493,0,0,1-4.14-18.033,1.559,1.559,0,0,0,.777-1.954,12.111,12.111,0,0,1,11.318-16.4,11.911,11.911,0,0,1,2.492.257,1.56,1.56,0,0,0,1.814-1.055,14.473,14.473,0,0,1,27.6,0,1.559,1.559,0,0,0,1.813,1.055,11.96,11.96,0,0,1,2.494-.257A12.112,12.112,0,0,1,76.1,30.423a1.559,1.559,0,0,0,.777,1.954,9.493,9.493,0,0,1-4.14,18.033Z"/><path class="c" d="M353.172,141.875a1.56,1.56,0,0,0-1.559,1.559v15.382a1.559,1.559,0,1,0,3.119,0V143.434A1.559,1.559,0,0,0,353.172,141.875Z" transform="translate(-290.033 -119.752)"/><path class="c" d="M249.921,141.875h-4.362A1.576,1.576,0,0,0,244,143.434V159.1a1.559,1.559,0,1,0,3.119,0v-5.253c.97-.006,2.162-.012,2.8-.012a5.98,5.98,0,1,0,0-11.959Zm0,8.84c-.638,0-1.813.006-2.78.012,0-1-.01-2.22-.01-2.873,0-.554,0-1.823-.008-2.861h2.8a2.862,2.862,0,1,1,0,5.721Z" transform="translate(-199.2 -119.752)"/><path class="c" d="M123.52,143.1l-.013-.032a1.911,1.911,0,0,0-3.547,0l-.011.028-5.882,15.444a1.559,1.559,0,0,0,2.914,1.11l1.082-2.841h7.3l1.071,2.837a1.559,1.559,0,1,0,2.917-1.1Zm-4.268,10.589,2.477-6.5,2.455,6.5Z" transform="translate(-89.442 -119.745)"/><path class="c" d="M247.544,323.285a1.559,1.559,0,1,0,0,3.119h.009a1.559,1.559,0,1,0-.009-3.119Z" transform="translate(-200.876 -272.875)"/></g></g></svg>