<svg xmlns="http://www.w3.org/2000/svg" width="212.819" height="55.068" viewBox="0 0 212.819 55.068"><defs><style>.a,.b{fill:#fff;}.b{font-size:9px;font-family:Righteous-Regular, Righteous;}</style></defs><g transform="translate(0.001)"><g transform="translate(-0.001)"><path class="a" d="M99.186,70.89V89.727a3.5,3.5,0,0,1-.3,1.45,3.954,3.954,0,0,1-.815,1.187,3.764,3.764,0,0,1-2.667,1.09,3.64,3.64,0,0,1-1.45-.29,3.745,3.745,0,0,1-1.187-.8,3.939,3.939,0,0,1-.815-1.187,3.491,3.491,0,0,1-.3-1.45V70.89H84.137V89.727a3.637,3.637,0,0,1-1.105,2.637c-.04.038-.082.072-.122.108,1,2.415,3.059,4.107,4.751,5.789.067-.058.137-.108.2-.167a11.13,11.13,0,0,0,3.5,2.14,11.294,11.294,0,0,0,4.031.732,11.047,11.047,0,0,0,4.4-.883,11.477,11.477,0,0,0,3.589-2.4,11.2,11.2,0,0,0,2.415-3.576,10.972,10.972,0,0,0,.883-4.376V70.893Z" transform="translate(-69.089 -59.073)"/><path class="a" d="M13.82,92.442a3.886,3.886,0,0,1-1.092.692,3.742,3.742,0,0,1-1.464.29,3.641,3.641,0,0,1-1.45-.29,3.751,3.751,0,0,1-1.98-1.987,3.639,3.639,0,0,1-.29-1.45V70.86H0V89.7a10.964,10.964,0,0,0,.883,4.376A11.2,11.2,0,0,0,3.3,97.648a11.512,11.512,0,0,0,3.576,2.407,10.945,10.945,0,0,0,4.391.883,11.262,11.262,0,0,0,4.046-.732,10.822,10.822,0,0,0,3.262-1.97C16.88,96.555,14.82,94.858,13.82,92.442Z" transform="translate(0.001 -59.048)"/><path class="a" d="M251.473,41.341h-1.822l-2.926-4.066a24.179,24.179,0,0,1-2.279,1.809,16.837,16.837,0,0,1-2.527,1.464,15.5,15.5,0,0,1-2.72.98,11.317,11.317,0,0,1-2.834.358A14.889,14.889,0,0,1,225.7,37.453a15.309,15.309,0,0,1-3.244-4.948,16.068,16.068,0,0,1-1.187-6.226,16.1,16.1,0,0,1,1.187-6.213A15.445,15.445,0,0,1,225.7,15.1a14.978,14.978,0,0,1,4.8-3.286,14.632,14.632,0,0,1,5.868-1.187,13.359,13.359,0,0,1,2.057.167,10.722,10.722,0,0,1,2.072.545,8.6,8.6,0,0,1,1.894.98,5.754,5.754,0,0,1,1.49,1.49V0h7.593ZM243.88,26.293a7.835,7.835,0,0,0-.593-3,8.623,8.623,0,0,0-1.615-2.567,8.035,8.035,0,0,0-2.389-1.8,6.484,6.484,0,0,0-2.914-.677,7.706,7.706,0,0,0-2.914.552,6.863,6.863,0,0,0-2.375,1.587,7.426,7.426,0,0,0-1.587,2.527,9.236,9.236,0,0,0-.58,3.369,8.415,8.415,0,0,0,2.167,5.668,7.4,7.4,0,0,0,2.375,1.74,6.835,6.835,0,0,0,2.914.635,6.478,6.478,0,0,0,2.914-.677,8.028,8.028,0,0,0,2.389-1.8,8.623,8.623,0,0,0,1.615-2.567,7.835,7.835,0,0,0,.593-3.006Z" transform="translate(-184.381)"/><path class="a" d="M444.468,10.78V0H436.93V14.244c2.5-1.047,5.5-1.625,7.555-3.476Z" transform="translate(-364.095)"/><path class="a" d="M462.319,72.492a13.591,13.591,0,0,0-2.817-4.224,13.066,13.066,0,0,0-4.182-2.844,12.836,12.836,0,0,0-5.136-1.035,10.205,10.205,0,0,0-2.929.429,8.8,8.8,0,0,0-2.77,1.438c-2.055,1.85-5.058,2.427-7.555,3.476v24.8h7.538v-16.9a5.534,5.534,0,0,1,.442-2.2,5.688,5.688,0,0,1,5.274-3.466,5.439,5.439,0,0,1,2.182.442,5.691,5.691,0,0,1,3.009,3.024,5.541,5.541,0,0,1,.442,2.2h-.055v16.9h7.593v-16.9a12.934,12.934,0,0,0-1.035-5.144Z" transform="translate(-364.095 -53.655)"/><path class="a" d="M628.872,79.432a15.932,15.932,0,0,1-1.187,6.168,15.436,15.436,0,0,1-3.231,4.943,14.983,14.983,0,0,1-24.6-4.943,15.924,15.924,0,0,1-1.187-6.168,16.17,16.17,0,0,1,1.187-6.239,15.281,15.281,0,0,1,3.244-4.956,15.089,15.089,0,0,1,4.8-3.272,14.632,14.632,0,0,1,5.868-1.187,15.488,15.488,0,0,1,5.894,1.119,14.251,14.251,0,0,1,4.791,3.167,15.051,15.051,0,0,1,3.231,4.943A16.777,16.777,0,0,1,628.872,79.432Zm-7.593,0a8.78,8.78,0,0,0-.593-3.3,7.852,7.852,0,0,0-1.615-2.54,6.989,6.989,0,0,0-2.389-1.629,7.778,7.778,0,0,0-5.834,0,6.846,6.846,0,0,0-2.375,1.629,7.771,7.771,0,0,0-1.582,2.54,8.965,8.965,0,0,0-.58,3.3,8.542,8.542,0,0,0,.58,3.167,7.964,7.964,0,0,0,1.592,2.552,7.426,7.426,0,0,0,2.375,1.7,6.956,6.956,0,0,0,2.914.622,7.382,7.382,0,0,0,2.914-.58,7.248,7.248,0,0,0,2.389-1.629,7.654,7.654,0,0,0,1.615-2.54A8.81,8.81,0,0,0,621.279,79.432Z" transform="translate(-498.87 -53.146)"/><path class="a" d="M805.536,96.681a20.32,20.32,0,0,1-1.947,1.56,14.634,14.634,0,0,1-2.167,1.27,13.423,13.423,0,0,1-2.334.855,9.529,9.529,0,0,1-2.444.317,13.636,13.636,0,0,1-5.136-.967,12.479,12.479,0,0,1-7.053-7.08,15.13,15.13,0,0,1-1.035-5.729V70.56h7.51V86.906a7.317,7.317,0,0,0,.455,2.667,5.834,5.834,0,0,0,1.229,1.974,5.134,5.134,0,0,0,1.809,1.215,5.929,5.929,0,0,0,2.222.413,4.692,4.692,0,0,0,2.2-.538,6.157,6.157,0,0,0,1.809-1.422,6.825,6.825,0,0,0,1.215-2,6.228,6.228,0,0,0,.442-2.305V70.56h7.538v29.579h-1.824Z" transform="translate(-652.827 -58.798)"/><path class="a" d="M968.5,100.421H951.27V92.9H968.5a1.885,1.885,0,0,0,1.877-1.877,1.028,1.028,0,0,0-.552-1.049,3.216,3.216,0,0,0-1.334-.248h-7.835a9.1,9.1,0,0,1-3.667-.745,9.441,9.441,0,0,1-4.984-5.026,9.581,9.581,0,0,1,0-7.345,9.341,9.341,0,0,1,8.651-5.716h15.269v7.51H960.657a1.9,1.9,0,0,0-1.325,3.244,1.785,1.785,0,0,0,1.334.567H968.5a10.2,10.2,0,0,1,3.644.648,9.222,9.222,0,0,1,2.982,1.809,8.551,8.551,0,0,1,2.015,2.789,8.458,8.458,0,0,1,.745,3.562,9,9,0,0,1-.745,3.659,9.808,9.808,0,0,1-2.015,2.982,9.277,9.277,0,0,1-2.982,2.015,9.168,9.168,0,0,1-3.644.737Z" transform="translate(-792.697 -59.08)"/><path class="a" d="M1125.2,87.239a4.287,4.287,0,0,0,.884.18q.442.042.883.042a7.418,7.418,0,0,0,2.125-.3,7.67,7.67,0,0,0,1.919-.87,7.147,7.147,0,0,0,1.6-1.38,7.252,7.252,0,0,0,1.145-1.809l5.524,5.546a14.871,14.871,0,0,1-2.415,2.679,15.234,15.234,0,0,1-2.954,2.015,14.756,14.756,0,0,1-3.334,1.257,15.16,15.16,0,0,1-3.6.428,14.928,14.928,0,0,1-10.669-4.391,15.154,15.154,0,0,1-3.25-4.928,16.211,16.211,0,0,1-1.187-6.281,16.749,16.749,0,0,1,1.187-6.406,14.475,14.475,0,0,1,8.048-8.118,15.252,15.252,0,0,1,5.868-1.132,14.868,14.868,0,0,1,3.617.442,15.236,15.236,0,0,1,8.753,5.991Zm3.859-15.546a4.358,4.358,0,0,0-1.035-.248,9.975,9.975,0,0,0-1.064-.055,7.538,7.538,0,0,0-2.914.567,6.939,6.939,0,0,0-2.375,1.615,7.611,7.611,0,0,0-1.587,2.527,9.046,9.046,0,0,0-.58,3.334q0,.413.042.938t.138,1.064q.1.538.235,1.035a3.835,3.835,0,0,0,.358.883Z" transform="translate(-926.527 -53.138)"/><text class="b" transform="translate(134.049 53.068)"><tspan x="0" y="0">&lt;somos digitais/&gt;</tspan></text></g></g></svg>