<svg xmlns="http://www.w3.org/2000/svg" xmlns:xlink="http://www.w3.org/1999/xlink" width="114" height="82" viewBox="0 0 114 82"><defs><style>.a{fill:#a6ce39;}.b{clip-path:url(#a);}.c{fill:url(#b);}</style><clipPath id="a"><rect class="a" width="114" height="82" transform="translate(221 4348)"/></clipPath><linearGradient id="b" x1="0.5" x2="0.5" y2="1" gradientUnits="objectBoundingBox"><stop offset="0" stop-color="#abbc37"/><stop offset="1" stop-color="#2ba684"/></linearGradient></defs><g class="b" transform="translate(-221 -4348)"><g transform="translate(240 4348)"><path class="c" d="M74.354,7.262H52.535L51.38,6.107a14.018,14.018,0,0,0-19.828,0L30.4,7.262H8.578V29.081L2,35.659V80.932H80.932V35.659l-6.578-6.578ZM78.3,76.44,59.77,57.91,78.3,39.379ZM41.466,4.631a11.3,11.3,0,0,1,7.276,2.631H34.19A11.3,11.3,0,0,1,41.466,4.631ZM71.723,9.893V42.237L57.91,56.05l-2.039-2.039a20.371,20.371,0,0,0-28.81,0L25.022,56.05,11.209,42.237V9.893ZM23.162,57.91,4.631,76.44V39.379ZM8.578,39.606l-3.4-3.4,3.4-3.4ZM6.491,78.3l22.43-22.43a17.741,17.741,0,0,1,25.09,0L76.44,78.3ZM77.756,36.2l-3.4,3.4V32.8Z" transform="translate(0 0)"/><path class="c" d="M24.5,34.679h3.658v1.558a3.947,3.947,0,1,0,2.631,0V34.679H43.942v1.558a3.947,3.947,0,1,0,2.631,0V34.679h3.658l4.6-18.417H22.605L21.29,11H15v2.631h4.235Zm4.974,6.578a1.316,1.316,0,1,1,1.316-1.316A1.316,1.316,0,0,1,29.471,41.257Zm15.786,0a1.316,1.316,0,1,1,1.316-1.316A1.316,1.316,0,0,1,45.257,41.257Zm6.208-22.364L48.176,32.048H26.552L23.263,18.893Z" transform="translate(4.102 2.84)"/></g></g></svg>