<svg xmlns="http://www.w3.org/2000/svg" xmlns:xlink="http://www.w3.org/1999/xlink" width="85.004" height="74.667" viewBox="0 0 85.004 74.667"><defs><style>.a{fill:url(#a);}</style><linearGradient id="a" x1="0.5" x2="0.5" y2="1" gradientUnits="objectBoundingBox"><stop offset="0" stop-color="#abbc37"/><stop offset="1" stop-color="#2ba684"/></linearGradient></defs><g transform="translate(0 -31.132)"><path class="a" d="M80.371,53.924H75.608v-16.1a6.7,6.7,0,0,0-6.693-6.693H11.249a6.7,6.7,0,0,0-6.693,6.693v40.86a6.668,6.668,0,0,0,1.452,4.133H2.155A2.161,2.161,0,0,0,0,84.981v3.159a5.493,5.493,0,0,0,5.466,5.507H36.347a1.245,1.245,0,1,0,0-2.49H5.466A3,3,0,0,1,2.49,88.141V85.308H54.947v5.849H42.157a1.245,1.245,0,1,0,0,2.49h12.79v7.519A4.638,4.638,0,0,0,59.58,105.8H80.371A4.638,4.638,0,0,0,85,101.166V58.557a4.638,4.638,0,0,0-4.633-4.633ZM54.947,82.818H10.5a4.239,4.239,0,0,1-3.449-4.133V37.825a4.207,4.207,0,0,1,4.2-4.2H68.915a4.207,4.207,0,0,1,4.2,4.2v16.1h-2.4V38.212a2.225,2.225,0,0,0-2.222-2.223H11.673A2.225,2.225,0,0,0,9.45,38.212V78.236a2.225,2.225,0,0,0,2.223,2.223H54.947v2.359ZM68.224,38.479v3.306H18.294V38.479Zm-52.42,0v3.306H11.941V38.479ZM54.947,58.557V77.968H11.941V44.276H68.224v9.648H59.58a4.638,4.638,0,0,0-4.633,4.633Zm2.49,4.889h2.5v2.493h-2.5Zm25.076,37.721a2.145,2.145,0,0,1-2.142,2.143H59.58a2.145,2.145,0,0,1-2.142-2.143V97.6H82.514Zm0-6.059H57.438V68.429H82.514Zm0-29.169H62.432V63.445H82.514Zm0-4.984H57.438v-2.4a2.145,2.145,0,0,1,2.142-2.142H80.371a2.145,2.145,0,0,1,2.142,2.142v2.4Z"/><path class="a" d="M407.255,442.083H409.9a1.245,1.245,0,0,0,0-2.49h-2.647a1.245,1.245,0,0,0,0,2.49Z" transform="translate(-338.603 -340.647)"/><path class="a" d="M219.3,178.532l-5.343-3.643A2.552,2.552,0,0,0,209.97,177v7.287a2.552,2.552,0,0,0,3.987,2.107l5.343-3.643A2.552,2.552,0,0,0,219.3,178.532Zm-1.4,2.157-5.343,3.644a.06.06,0,0,1-.094-.05V177a.049.049,0,0,1,.032-.053.067.067,0,0,1,.031-.009.054.054,0,0,1,.031.013l5.343,3.643a.06.06,0,0,1,0,.1Z" transform="translate(-175.11 -119.517)"/><path class="a" d="M177.865,141.552a11.658,11.658,0,1,0,11.658,11.658A11.671,11.671,0,0,0,177.865,141.552Zm0,20.825a9.167,9.167,0,1,1,9.167-9.167A9.178,9.178,0,0,1,177.865,162.377Z" transform="translate(-138.613 -92.088)"/><path class="a" d="M401.208,302.081a2.383,2.383,0,0,0-3.723,1.967v6.342a2.383,2.383,0,0,0,3.723,1.967l4.65-3.171a2.382,2.382,0,0,0,0-3.935Zm-1.232,8.1v-5.929l4.347,2.965Z" transform="translate(-331.493 -225.617)"/><path class="a" d="M369.7,293.657a10.335,10.335,0,0,0,9.7-6.814A1.245,1.245,0,0,0,377.06,286a7.817,7.817,0,1,1,.1-5.013,1.245,1.245,0,1,0,2.374-.752,10.308,10.308,0,1,0-9.827,13.423Z" transform="translate(-299.728 -201.747)"/></g></svg>