<svg xmlns="http://www.w3.org/2000/svg" xmlns:xlink="http://www.w3.org/1999/xlink" width="82" height="48.737" viewBox="0 0 82 48.737"><defs><style>.a{fill:url(#a);}</style><linearGradient id="a" x1="0.5" x2="0.5" y2="1" gradientUnits="objectBoundingBox"><stop offset="0" stop-color="#abbc37"/><stop offset="1" stop-color="#2ba684"/></linearGradient></defs><g transform="translate(0 0)"><path class="a" d="M1.281,133.307a1.281,1.281,0,0,1,1.281,1.281v8.978H4.6a8.1,8.1,0,0,1,16.093,0H47.406V106.409H2.563v4.03a1.281,1.281,0,1,1-2.562,0v-5.311a1.281,1.281,0,0,1,1.281-1.281H48.688a1.281,1.281,0,0,1,1.281,1.281v1.281H64.642a5.835,5.835,0,0,1,5.827,5.827v1.86a1.281,1.281,0,0,1-1.281,1.281H67.7l.978,11.743a5.823,5.823,0,0,1,4.356,5.616v10.829a1.281,1.281,0,0,1-1.281,1.281H69.155a8.32,8.32,0,0,1-16.592,0c-.012,0-.021.006-.032.006H49.969a1.281,1.281,0,0,1-1.281,1.281H20.577a8.1,8.1,0,0,1-15.859,0H1.281A1.281,1.281,0,0,1,0,144.853V134.588A1.281,1.281,0,0,1,1.281,133.307Zm59.578,16.665a5.766,5.766,0,1,0-5.766-5.766A5.766,5.766,0,0,0,60.859,149.972Zm-10.891-7.687h2.563a1.174,1.174,0,0,1,.222.045,8.318,8.318,0,0,1,16.2-.045h1.514v-9.548a3.268,3.268,0,0,0-3.265-3.265H49.969Zm0-15.375H66.087l-.961-11.531H49.969Zm0-14.094H67.906v-.579a3.268,3.268,0,0,0-3.265-3.265H49.969ZM7.118,144.8a5.527,5.527,0,0,0,5.528,5.217h0a5.536,5.536,0,0,0,5.443-4.591,1.153,1.153,0,0,1,.065-1.247,5.527,5.527,0,1,0-11.037.62Z" transform="translate(8.969 -103.847)"/><path class="a" d="M321.281,167.847h17.938a1.281,1.281,0,0,1,0,2.563H321.281a1.281,1.281,0,0,1,0-2.562Z" transform="translate(-309.75 -157.597)"/><path class="a" d="M273.281,255.847h28.188a1.281,1.281,0,1,1,0,2.562H273.281a1.281,1.281,0,1,1,0-2.562Z" transform="translate(-264.313 -231.503)"/><path class="a" d="M345.281,207.847h14.094a1.281,1.281,0,0,1,0,2.563H345.281a1.281,1.281,0,0,1,0-2.562Z" transform="translate(-333.75 -191.191)"/><path class="a" d="M467.844,170.409h-2.562a1.281,1.281,0,0,1,0-2.562h2.563a1.281,1.281,0,0,1,0,2.563Z" transform="translate(-461.438 -157.597)"/><path class="a" d="M473.281,255.847h2.563a1.281,1.281,0,1,1,0,2.562h-2.562a1.281,1.281,0,1,1,0-2.562Z" transform="translate(-470.719 -231.503)"/><path class="a" d="M465.281,207.847h5.125a1.281,1.281,0,0,1,0,2.563h-5.125a1.281,1.281,0,0,1,0-2.562Z" transform="translate(-464 -191.191)"/></g></svg>