<svg xmlns="http://www.w3.org/2000/svg" xmlns:xlink="http://www.w3.org/1999/xlink" width="114" height="82" viewBox="0 0 114 82"><defs><style>.a{fill:url(#a);}.b{clip-path:url(#b);}</style><linearGradient id="a" x1="0.5" y1="-0.95" x2="0.5" y2="1.615" gradientUnits="objectBoundingBox"><stop offset="0" stop-color="#abbc37"/><stop offset="1" stop-color="#2ba684"/></linearGradient><clipPath id="b"><rect class="a" width="114" height="82" transform="translate(221 4348)"/></clipPath></defs><g class="b" transform="translate(-221 -4348)"><g transform="translate(232.164 4347.911)"><path class="a" d="M55.5,30.169A15.756,15.756,0,1,0,71.261,45.925,15.774,15.774,0,0,0,55.5,30.169Zm0,27.931A12.175,12.175,0,1,1,67.68,45.925,12.189,12.189,0,0,1,55.5,58.1Zm0,0"/><path class="a" d="M55.5,37.869a1.79,1.79,0,1,0,0,3.581,4.481,4.481,0,0,1,4.475,4.475,1.79,1.79,0,1,0,3.581,0A8.065,8.065,0,0,0,55.5,37.869Zm0,0"/><path class="a" d="M11.037,13.59a1.791,1.791,0,1,0-3.18,1.646l4.82,9.31a1.79,1.79,0,0,0,3.2-.048L18.8,18.423l3.169,6.123a1.792,1.792,0,0,0,1.59.967h.027A1.792,1.792,0,0,0,25.172,24.5l4.471-9.31a1.79,1.79,0,1,0-3.228-1.55L23.5,19.713l-3.17-6.123a1.79,1.79,0,0,0-3.2.048l-2.917,6.075Zm0,0"/><path class="a" d="M22.558,3.67A1.79,1.79,0,0,0,23.824.614,1.791,1.791,0,0,0,20.767,1.88a1.792,1.792,0,0,0,1.79,1.79Zm0,0"/><path class="a" d="M91.671,30.885V7.251A7.17,7.17,0,0,0,84.509.09H30.078a1.79,1.79,0,0,0,0,3.581H84.509A3.585,3.585,0,0,1,88.09,7.251V30.885a3.585,3.585,0,0,1-3.581,3.581H75.915c-.052,0-.1,0-.152.008A23.4,23.4,0,0,0,63.177,23.95l2.654-5.526L69,24.547a1.789,1.789,0,0,0,1.59.967h.027A1.791,1.791,0,0,0,72.2,24.5l4.471-9.31a1.79,1.79,0,0,0-3.228-1.55l-2.917,6.075-3.17-6.123a1.791,1.791,0,0,0-3.2.048L61.24,19.713,58.071,13.59a1.791,1.791,0,0,0-3.181,1.646l3.963,7.655a23.312,23.312,0,0,0-9.7.639l4.007-8.342a1.79,1.79,0,0,0-3.228-1.55l-2.918,6.075-3.17-6.123a1.791,1.791,0,0,0-3.2.048l-2.917,6.075-3.17-6.123a1.791,1.791,0,0,0-3.18,1.646l4.82,9.31a1.79,1.79,0,0,0,3.2-.048l2.918-6.074,3.169,6.123a1.748,1.748,0,0,0,.189.285,23.432,23.432,0,0,0-10.422,9.635H7.162a3.585,3.585,0,0,1-3.581-3.581V7.251A3.585,3.585,0,0,1,7.162,3.67H14.5A1.79,1.79,0,0,0,14.5.09H7.162A7.17,7.17,0,0,0,0,7.251V30.885a7.17,7.17,0,0,0,7.162,7.162H33.6A23.271,23.271,0,0,0,67.1,66.1l14.21,14.21a6.071,6.071,0,1,0,8.586-8.586l-5.583-5.583a1.79,1.79,0,0,0-2.532,2.532l5.583,5.584a2.49,2.49,0,0,1-3.521,3.522L70.1,64.042a23.254,23.254,0,0,0,7.307-26h7.1A7.17,7.17,0,0,0,91.671,30.885ZM55.5,65.62A19.695,19.695,0,1,1,75.2,45.925,19.718,19.718,0,0,1,55.5,65.62Zm0,0"/><path class="a" d="M77.53,61.9a1.79,1.79,0,1,0,1.266-.525A1.8,1.8,0,0,0,77.53,61.9Zm0,0"/></g></g></svg>