<svg xmlns="http://www.w3.org/2000/svg" xmlns:xlink="http://www.w3.org/1999/xlink" width="114" height="82" viewBox="0 0 114 82"><defs><style>.a{fill:url(#a);}.b{clip-path:url(#b);}</style><linearGradient id="a" x1="0.5" x2="0.5" y2="1" gradientUnits="objectBoundingBox"><stop offset="0" stop-color="#abbc37"/><stop offset="1" stop-color="#2ba684"/></linearGradient><clipPath id="b"><rect class="a" width="114" height="82" transform="translate(221 4348)"/></clipPath></defs><g class="b" transform="translate(-221 -4348)"><g transform="translate(237.285 4328.509)"><path class="a" d="M158.5,93.574a16.522,16.522,0,0,0,22.165,15.2,1.27,1.27,0,1,0-.87-2.387,13.873,13.873,0,0,1-4.943.84,14.071,14.071,0,0,1-13.813-13.713,13.972,13.972,0,1,1,27.171,4.331,2.641,2.641,0,0,1-2.5,1.761h0a2.658,2.658,0,0,1-2.655-2.655V86.483a1.27,1.27,0,0,0-2.54,0V87.4a8.044,8.044,0,1,0,.334,11.385,5.2,5.2,0,0,0,4.862,3.365h0a5.184,5.184,0,0,0,4.9-3.468,16.511,16.511,0,1,0-32.11-5.108Zm16.509,5.188a5.5,5.5,0,1,1,5.5-5.5A5.51,5.51,0,0,1,175.008,98.762Z" transform="translate(-131.651 -46.723)"/><path class="a" d="M86.223,50.743,50.611,22.917a11.426,11.426,0,0,0-14.024-.041L.5,50.737A1.281,1.281,0,0,0,0,51.744V62.922a1.27,1.27,0,0,0,2.54,0V53.909L34.482,71.751,2.541,96.41V68.85a1.27,1.27,0,0,0-2.54,0V99a1.28,1.28,0,0,0,1.27,1.27H85.441A1.284,1.284,0,0,0,86.711,99v-47.1a1.327,1.327,0,0,0-.488-1.151ZM4.994,97.725,38.139,72.137a8.886,8.886,0,0,1,10.908.032l.612.478L65.583,85.09a1.27,1.27,0,0,0,1.564-2L52.713,71.81l7.81-4.4A1.27,1.27,0,0,0,59.276,65.2l-8.732,4.92a11.423,11.423,0,0,0-13.872-.053L3.57,51.574,38.139,24.886a8.886,8.886,0,0,1,10.908.032L83.284,51.671,64.293,62.37a1.27,1.27,0,1,0,1.247,2.213l18.632-10.5v42.3L71.685,86.634a1.27,1.27,0,0,0-1.564,2l11.632,9.089H4.994Z" transform="translate(0 0)"/></g></g></svg>