<svg xmlns="http://www.w3.org/2000/svg" width="80" height="80" viewBox="0 0 80 80"><defs><style>.a{fill:#81bd78;}.b{fill:#fff;}</style></defs><circle class="a" cx="40" cy="40" r="40"/><g transform="translate(17.705 17)"><path class="b" d="M17.468,5.838A11.622,11.622,0,1,0,29.09,17.46,11.621,11.621,0,0,0,17.468,5.838Zm0,19.165a7.544,7.544,0,1,1,7.544-7.544A7.541,7.541,0,0,1,17.468,25Z" transform="translate(5.188 5.179)"/><path class="b" d="M31.986.143c-4.167-.194-14.489-.185-18.66,0-3.665.172-6.9,1.057-9.5,3.663C-.534,8.162.023,14.032.023,22.639c0,8.81-.491,14.543,3.8,18.833,4.373,4.371,10.327,3.8,18.833,3.8,8.727,0,11.739.006,14.825-1.189,4.2-1.629,7.362-5.379,7.672-12.115.2-4.169.185-14.489,0-18.66C44.778,5.357,40.511.535,31.986.143Zm6.6,38.448c-2.855,2.855-6.817,2.6-15.982,2.6-9.436,0-13.221.14-15.982-2.629-3.18-3.165-2.6-8.247-2.6-15.953,0-10.427-1.07-17.937,9.395-18.473,2.4-.085,3.112-.113,9.165-.113l.085.057c10.057,0,17.948-1.053,18.422,9.41.108,2.387.132,3.1.132,9.148,0,9.327.176,13.134-2.631,15.953Z" transform="translate(0 -0.001)"/><circle class="b" cx="2.716" cy="2.716" r="2.716" transform="translate(32.022 7.842)"/></g></svg>