<svg xmlns="http://www.w3.org/2000/svg" width="80" height="80" viewBox="0 0 80 80"><defs><style>.a{fill:#81bd78;}.b{fill:#fff;}</style></defs><circle class="a" cx="40" cy="40" r="40"/><g transform="translate(18 17)"><path class="b" d="M22.954,50.409C36.2,50.409,45,41.111,45,27.987a19.614,19.614,0,0,0-.373-3.82H22.958v7.89H35.987c-.533,3.351-3.945,9.895-13.029,9.895a14.5,14.5,0,0,1,0-29A12.9,12.9,0,0,1,32.1,16.491l6.231-5.98A21.952,21.952,0,0,0,22.955,4.5a22.954,22.954,0,1,0,0,45.909Z" transform="translate(0 -4.5)"/></g></svg>