<svg xmlns="http://www.w3.org/2000/svg" width="27.387" height="27.381" viewBox="0 0 27.387 27.381"><defs><style>.a{fill:#006837;}</style></defs><path class="a" d="M13.622,38.5a7.02,7.02,0,1,0,7.02,7.02A7.009,7.009,0,0,0,13.622,38.5Zm0,11.584a4.564,4.564,0,1,1,4.564-4.564,4.572,4.572,0,0,1-4.564,4.564Zm8.945-11.871a1.637,1.637,0,1,1-1.637-1.637A1.634,1.634,0,0,1,22.567,38.208Zm4.65,1.662A8.1,8.1,0,0,0,25,34.133a8.157,8.157,0,0,0-5.737-2.212c-2.261-.128-9.036-.128-11.3,0a8.145,8.145,0,0,0-5.737,2.206A8.13,8.13,0,0,0,.021,39.864c-.128,2.261-.128,9.036,0,11.3A8.1,8.1,0,0,0,2.233,56.9,8.167,8.167,0,0,0,7.97,59.11c2.261.128,9.036.128,11.3,0A8.1,8.1,0,0,0,25,56.9a8.157,8.157,0,0,0,2.212-5.737c.128-2.261.128-9.03,0-11.291ZM24.3,53.587a4.621,4.621,0,0,1-2.6,2.6c-1.8.715-6.079.55-8.071.55s-6.275.159-8.071-.55a4.621,4.621,0,0,1-2.6-2.6c-.715-1.8-.55-6.079-.55-8.071s-.159-6.275.55-8.071a4.621,4.621,0,0,1,2.6-2.6c1.8-.715,6.079-.55,8.071-.55s6.275-.159,8.071.55a4.621,4.621,0,0,1,2.6,2.6c.715,1.8.55,6.079.55,8.071S25.011,51.791,24.3,53.587Z" transform="translate(0.075 -31.825)"/></svg>