<svg xmlns="http://www.w3.org/2000/svg" xmlns:xlink="http://www.w3.org/1999/xlink" width="84.959" height="69.126" viewBox="0 0 84.959 69.126"><defs><style>.a{fill:url(#a);}</style><linearGradient id="a" x1="0.5" x2="0.5" y2="1" gradientUnits="objectBoundingBox"><stop offset="0" stop-color="#abbc37"/><stop offset="1" stop-color="#2ba684"/></linearGradient></defs><g transform="translate(0 -44.698)"><g transform="translate(0 44.698)"><path class="a" d="M80.708,65.648H72.555L70.267,48.381a4.282,4.282,0,0,0-4.779-3.649l-61.8,8.19A4.251,4.251,0,0,0,.872,54.562,4.208,4.208,0,0,0,.039,57.7L5.254,97.027a4.242,4.242,0,0,0,4.765,3.663l4.094-.54v9.423a4.251,4.251,0,0,0,4.251,4.251H80.708a4.251,4.251,0,0,0,4.251-4.251V69.9A4.251,4.251,0,0,0,80.708,65.648Zm-11.011,0H58.632l10.874-1.441ZM2.845,57.32a1.388,1.388,0,0,1,.281-1.039,1.417,1.417,0,0,1,.944-.553l61.785-8.187a1.437,1.437,0,0,1,1.6,1.219l.56,4.22L3.4,61.549ZM14.112,97.292l-4.458.588a1.417,1.417,0,0,1-1.591-1.218h0L4.9,72.775l9.21-1.217ZM14.3,68.676,4.522,69.965,3.779,64.36l64.612-8.57.425,3.248L69.13,61.4,37.067,65.648h-18.7A4.251,4.251,0,0,0,14.3,68.676Zm67.826,40.9a1.417,1.417,0,0,1-1.417,1.417H18.363a1.417,1.417,0,0,1-1.417-1.417V69.941c0-.014.007-.028.007-.043a1.417,1.417,0,0,1,1.417-1.417H80.708A1.417,1.417,0,0,1,82.125,69.9Z" transform="translate(0 -44.698)"/><path class="a" d="M298.784,223.764a7.085,7.085,0,0,0,1.493-1.493,7.085,7.085,0,1,0,0-8.414,7.085,7.085,0,1,0-1.493,9.907Zm7.161-9.951a4.251,4.251,0,1,1-4.251,4.251A4.251,4.251,0,0,1,305.945,213.813Zm-11.335,0a4.251,4.251,0,1,1-4.251,4.251A4.251,4.251,0,0,1,294.61,213.813Z" transform="translate(-236.572 -181.528)"/><rect class="a" width="2.834" height="2.834" transform="translate(22.614 30.868)"/><rect class="a" width="17.003" height="2.834" transform="translate(28.282 30.868)"/><rect class="a" width="22.671" height="2.834" transform="translate(22.614 36.536)"/><path class="a" d="M180.106,322.981H129.1a1.417,1.417,0,0,0-1.417,1.417v8.5a1.417,1.417,0,0,0,1.417,1.417h51.01a1.417,1.417,0,0,0,1.417-1.417v-8.5A1.417,1.417,0,0,0,180.106,322.981Zm-1.417,8.5H130.513v-5.668h48.176Z" transform="translate(-105.065 -273.692)"/></g></g></svg>