<svg xmlns="http://www.w3.org/2000/svg" xmlns:xlink="http://www.w3.org/1999/xlink" width="58.578" height="78.037" viewBox="0 0 58.578 78.037"><defs><style>.a{fill:url(#a);}</style><linearGradient id="a" x1="0.5" x2="0.5" y2="1" gradientUnits="objectBoundingBox"><stop offset="0" stop-color="#abbc37"/><stop offset="1" stop-color="#2ba684"/></linearGradient></defs><path class="a" d="M113.038,327.253c0-.767.656-1.231,1.807-1.231,1.343,0,1.711.607,2.206.607.576,0,.832-.735.832-1.1,0-1.056-2.1-1.279-3.038-1.279-1.839,0-3.886.816-3.886,3.2,0,3.79,5.133,3.054,5.133,5.453,0,.96-.832,1.391-1.791,1.391-1.631,0-2.063-1.231-2.718-1.231-.5,0-.912.672-.912,1.119,0,.928,1.6,1.983,3.694,1.983,2.207,0,3.806-1.183,3.806-3.47C118.172,328.548,113.038,329.235,113.038,327.253Zm0,0" transform="translate(-93.804 -274.826)"/><path class="a" d="M174.519,327.253c0-.767.656-1.231,1.807-1.231,1.343,0,1.711.607,2.206.607.576,0,.832-.735.832-1.1,0-1.056-2.1-1.279-3.038-1.279-1.839,0-3.886.816-3.886,3.2,0,3.79,5.133,3.054,5.133,5.453,0,.96-.832,1.391-1.791,1.391-1.631,0-2.063-1.231-2.718-1.231-.5,0-.912.672-.912,1.119,0,.928,1.6,1.983,3.694,1.983,2.207,0,3.806-1.183,3.806-3.47C179.652,328.548,174.519,329.235,174.519,327.253Zm0,0" transform="translate(-145.914 -274.826)"/><path class="a" d="M243.387,334.64h-3.9v-9.227c0-.448-.527-.639-1.04-.639-.527,0-1.04.192-1.04.639v10.394c0,.432.448.656.911.656h5.07c.416,0,.623-.464.623-.911C244.011,335.088,243.8,334.64,243.387,334.64Zm0,0" transform="translate(-201.222 -275.273)"/><path class="a" d="M54.9,34.051H53.361V24.072a24.072,24.072,0,0,0-48.144,0v9.978H3.674A3.678,3.678,0,0,0,0,37.724V74.363a3.678,3.678,0,0,0,3.674,3.673H54.9a3.678,3.678,0,0,0,3.674-3.673V37.724A3.678,3.678,0,0,0,54.9,34.051Zm1.388,19.931H51.513V49.689h4.779Zm-4.779,2.286h4.779v4.294H51.513ZM7.5,24.072a21.786,21.786,0,0,1,43.572,0v9.978H46.729V24.072a17.44,17.44,0,0,0-34.88,0v9.978H7.5Zm36.94,9.978H14.135V24.072a15.154,15.154,0,0,1,30.307,0ZM2.286,56.268H7.065v4.294H2.286Zm4.778-2.286H2.286V49.689H7.065ZM54.9,75.75H3.674a1.39,1.39,0,0,1-1.388-1.388V62.848H7.065v1.8a2.417,2.417,0,0,0,2.414,2.414H38.294a1.143,1.143,0,1,0,0-2.286H9.478a.128.128,0,0,1-.127-.127v-18.3a.128.128,0,0,1,.127-.127h5.483a1.143,1.143,0,1,0,0-2.286H9.478a2.417,2.417,0,0,0-2.414,2.414V47.4H2.286V37.724a1.389,1.389,0,0,1,1.388-1.387H54.9a1.389,1.389,0,0,1,1.388,1.387V47.4H51.513v-1.06A2.416,2.416,0,0,0,49.1,43.928H20.283a1.143,1.143,0,1,0,0,2.286H49.1a.128.128,0,0,1,.127.127v18.3a.127.127,0,0,1-.127.127H43.761a1.143,1.143,0,1,0,0,2.286H49.1a2.416,2.416,0,0,0,2.414-2.413v-1.8h4.779V74.363A1.389,1.389,0,0,1,54.9,75.75Zm0,0"/></svg>