<svg xmlns="http://www.w3.org/2000/svg" xmlns:xlink="http://www.w3.org/1999/xlink" width="114" height="82" viewBox="0 0 114 82"><defs><style>.a{fill:url(#a);}.b{clip-path:url(#b);}</style><linearGradient id="a" x1="0.5" x2="0.5" y2="1" gradientUnits="objectBoundingBox"><stop offset="0" stop-color="#abbc37"/><stop offset="1" stop-color="#2ba684"/></linearGradient><clipPath id="b"><rect class="a" width="114" height="82" transform="translate(221 4348)"/></clipPath></defs><g class="b" transform="translate(-221 -4348)"><g transform="translate(241 4349)"><path class="a" d="M75.89,8.616H73.351V7.347a3.813,3.813,0,0,0-3.808-3.808H55.581A2.541,2.541,0,0,0,53.042,1H27.656a2.541,2.541,0,0,0-2.539,2.539H11.155A3.813,3.813,0,0,0,7.347,7.347V8.616H4.808A3.813,3.813,0,0,0,1,12.424V26.386a5.072,5.072,0,0,0,3.808,4.9v38.26A3.813,3.813,0,0,0,1,73.351v5.077A1.269,1.269,0,0,0,2.269,79.7H78.429A1.269,1.269,0,0,0,79.7,78.429V73.351a3.813,3.813,0,0,0-3.808-3.808V31.283a5.072,5.072,0,0,0,3.808-4.9V12.424A3.813,3.813,0,0,0,75.89,8.616ZM69.543,6.077a1.271,1.271,0,0,1,1.269,1.269V8.616H55.581V6.077ZM27.656,3.539H53.042V13.693H27.656ZM9.885,7.347a1.271,1.271,0,0,1,1.269-1.269H25.117V8.616H9.885ZM4.808,11.155H25.117v2.539a2.541,2.541,0,0,0,2.539,2.539H53.042a2.541,2.541,0,0,0,2.539-2.539V11.155H75.89a1.271,1.271,0,0,1,1.269,1.269v6.347H3.539V12.424A1.271,1.271,0,0,1,4.808,11.155ZM64.466,21.309h5.077v5.077a2.539,2.539,0,1,1-5.077,0Zm-7.616,0h5.077v5.077a2.539,2.539,0,1,1-5.077,0Zm-7.616,0h5.077v5.077a2.539,2.539,0,1,1-5.077,0Zm-7.616,0H46.7v5.077a2.539,2.539,0,1,1-5.077,0Zm-7.616,0H39.08v5.077a2.539,2.539,0,1,1-5.077,0Zm-7.616,0h5.077v5.077a2.539,2.539,0,1,1-5.077,0Zm-7.616,0h5.077v5.077a2.539,2.539,0,0,1-5.077,0Zm-7.616,0h5.077v5.077a2.539,2.539,0,1,1-5.077,0ZM3.539,26.386V21.309H8.616v5.077a2.539,2.539,0,0,1-5.077,0ZM7.347,41.618H42.888V59.389H7.347ZM42.888,39.08H7.347V36.541H42.888ZM7.347,61.927H42.888v7.616H7.347ZM77.159,73.351v3.808H3.539V73.351a1.271,1.271,0,0,1,1.269-1.269H75.89A1.271,1.271,0,0,1,77.159,73.351ZM68.274,39.08H50.5V36.541H68.274ZM50.5,41.618H68.274V69.543H50.5ZM70.813,69.543V35.272A1.269,1.269,0,0,0,69.543,34H49.234a1.269,1.269,0,0,0-1.269,1.269V69.543H45.426V35.272A1.269,1.269,0,0,0,44.157,34H7.347V31.283A5.046,5.046,0,0,0,9.885,29.71a5.01,5.01,0,0,0,7.616,0,5.01,5.01,0,0,0,7.616,0,5.01,5.01,0,0,0,7.616,0,5.01,5.01,0,0,0,7.616,0,5.01,5.01,0,0,0,7.616,0,5.01,5.01,0,0,0,7.616,0,5.01,5.01,0,0,0,7.616,0,5.01,5.01,0,0,0,7.616,0,5.046,5.046,0,0,0,2.539,1.574v38.26Zm6.347-43.157a2.539,2.539,0,1,1-5.077,0V21.309h5.077Z"/><path class="a" d="M0,0H12.565V2.539H0Z" transform="translate(11.519 54.679) rotate(-45)"/><path class="a" d="M0,0H12.565V2.539H0Z" transform="translate(22.942 54.68) rotate(-45)"/><path class="a" d="M40.5,4H27.808a3.808,3.808,0,1,0,0,7.616H40.5A3.808,3.808,0,1,0,40.5,4Zm0,5.077H27.808a1.269,1.269,0,1,1,0-2.539H40.5a1.269,1.269,0,1,1,0,2.539Z" transform="translate(6.194 0.808)"/><circle class="a" cx="2.5" cy="2.5" r="2.5" transform="translate(52 51)"/></g></g></svg>